<svg width="256" height="256" viewBox="0 0 256 256" fill="none" xmlns="http://www.w3.org/2000/svg">
<circle cx="128" cy="128" r="128" fill="#1D232A"/>
<path d="M141.724 66C151.343 66 159.91 67.9682 167.425 71.9047C175.091 75.6899 181.103 81.5946 185.462 89.619C189.821 97.4921 192 107.636 192 120.051V190H156.829V125.502C156.829 115.661 154.65 108.393 150.291 103.7C146.082 99.0061 140.07 96.6593 132.255 96.6593C126.693 96.6593 121.658 97.8706 117.149 100.293C112.79 102.564 109.333 106.122 106.778 110.967C104.373 115.812 103.171 122.02 103.171 129.59V190H68V67.8168H101.593V101.656L95.28 91.4359C99.6388 83.2601 105.876 76.9768 113.993 72.5861C122.109 68.1954 131.353 66 141.724 66Z" fill="white"/>
</svg>
